<svg xmlns="http://www.w3.org/2000/svg" viewBox="0 0 10 8" width="32" height="32" shape-rendering="crispEdges">
  <!-- Hat -->
  <rect x="5" y="0" width="1" height="1" fill="#4a7c59"/>
  <rect x="4" y="1" width="1" height="1" fill="#4a7c59"/>
  <rect x="5" y="1" width="1" height="1" fill="#5a9c6a"/>
  <rect x="6" y="1" width="1" height="1" fill="#5a9c6a"/>
  <rect x="7" y="1" width="1" height="1" fill="#4a7c59"/>
  <rect x="3" y="2" width="1" height="1" fill="#4a7c59"/>
  <rect x="4" y="2" width="1" height="1" fill="#5a9c6a"/>
  <rect x="5" y="2" width="1" height="1" fill="#6ab87a"/>
  <rect x="6" y="2" width="1" height="1" fill="#6ab87a"/>
  <rect x="7" y="2" width="1" height="1" fill="#5a9c6a"/>
  <rect x="8" y="2" width="1" height="1" fill="#4a7c59"/>
  <rect x="2" y="3" width="1" height="1" fill="#3d6b4a"/>
  <rect x="3" y="3" width="1" height="1" fill="#4a7c59"/>
  <rect x="4" y="3" width="1" height="1" fill="#5a9c6a"/>
  <rect x="5" y="3" width="1" height="1" fill="#5a9c6a"/>
  <rect x="6" y="3" width="1" height="1" fill="#5a9c6a"/>
  <rect x="7" y="3" width="1" height="1" fill="#5a9c6a"/>
  <rect x="8" y="3" width="1" height="1" fill="#4a7c59"/>
  <rect x="9" y="3" width="1" height="1" fill="#3d6b4a"/>
  <!-- Face -->
  <rect x="4" y="4" width="1" height="1" fill="#e8c89e"/>
  <rect x="5" y="4" width="1" height="1" fill="#e8c89e"/>
  <rect x="6" y="4" width="1" height="1" fill="#e8c89e"/>
  <rect x="7" y="4" width="1" height="1" fill="#e8c89e"/>
  <rect x="3" y="5" width="1" height="1" fill="#e8c89e"/>
  <rect x="4" y="5" width="1" height="1" fill="#e8c89e"/>
  <rect x="5" y="5" width="1" height="1" fill="#e8c89e"/>
  <rect x="6" y="5" width="1" height="1" fill="#e8c89e"/>
  <rect x="7" y="5" width="1" height="1" fill="#e8c89e"/>
  <rect x="8" y="5" width="1" height="1" fill="#e8c89e"/>
  <!-- Eyes -->
  <rect x="3" y="6" width="1" height="1" fill="#e8c89e"/>
  <rect x="4" y="6" width="1" height="1" fill="#2d1b0e"/>
  <rect x="5" y="6" width="1" height="1" fill="#e8c89e"/>
  <rect x="6" y="6" width="1" height="1" fill="#e8c89e"/>
  <rect x="7" y="6" width="1" height="1" fill="#2d1b0e"/>
  <rect x="8" y="6" width="1" height="1" fill="#e8c89e"/>
  <!-- Mouth -->
  <rect x="4" y="7" width="1" height="1" fill="#e8c89e"/>
  <rect x="5" y="7" width="1" height="1" fill="#e8c89e"/>
  <rect x="6" y="7" width="1" height="1" fill="#c8785a"/>
  <rect x="7" y="7" width="1" height="1" fill="#e8c89e"/>
</svg>
